<svg width="323" height="241" viewBox="0 0 323 241" fill="none" xmlns="http://www.w3.org/2000/svg">
<path d="M0 25C0 11.1929 11.1929 0 25 0H201.5C213.374 0 223 9.62588 223 21.5C223 33.3741 213.374 43 201.5 43H0V25Z" fill="white"/>
<path d="M34.0938 19.8281V21.0469H31.9219V28.3125H30.4375V14.3281H31.9219V19.8281H34.0938ZM23.0156 15.6875V23.5625C24.9688 23.5625 27.0078 23.3984 29.2344 22.9375L29.4062 24.1875C27.0156 24.6719 24.7969 24.7969 22.7031 24.7969H21.5469V15.6875H23.0156ZM49.9531 23.4844V28.1562H40.2812V23.4844H49.9531ZM41.75 24.6719V26.9531H48.5156V24.6719H41.75ZM49.8906 14.8281V19.5938H45.8594V21.0469H51.5156V22.25H38.75V21.0469H44.3906V19.5938H40.375V14.8281H49.8906ZM41.8281 16.0312V18.4062H48.4219V16.0312H41.8281ZM64.1719 14.3281V28.3594H62.6875V14.3281H64.1719ZM56.6875 15.375C58.7656 15.375 60.2969 17.2812 60.2969 20.2812C60.2969 23.2969 58.7656 25.2031 56.6875 25.2031C54.5781 25.2031 53.0625 23.2969 53.0625 20.2812C53.0625 17.2812 54.5781 15.375 56.6875 15.375ZM56.6875 16.7031C55.3906 16.7031 54.5 18.0781 54.5 20.2812C54.5 22.5 55.3906 23.875 56.6875 23.875C57.9688 23.875 58.8594 22.5 58.8594 20.2812C58.8594 18.0781 57.9688 16.7031 56.6875 16.7031ZM74.0625 15.375C76.1562 15.375 77.6406 17.2812 77.6562 20.2812C77.6406 23.2969 76.1562 25.2031 74.0625 25.2031C71.9688 25.2031 70.4688 23.2969 70.4844 20.2812C70.4688 17.2812 71.9688 15.375 74.0625 15.375ZM74.0625 16.7031C72.7812 16.7031 71.9062 18.0781 71.9062 20.2812C71.9062 22.5 72.7812 23.875 74.0625 23.875C75.3594 23.875 76.2344 22.5 76.2344 20.2812C76.2344 18.0781 75.3594 16.7031 74.0625 16.7031ZM81.2188 14.3281V19.8125H83.4688V21.0625H81.2188V28.3281H79.7344V14.3281H81.2188ZM92.1562 15.7656V16.9844H90.7188V23.5C91.4141 23.4609 92.0938 23.3906 92.75 23.3125L92.8281 24.3906C89.8906 24.875 86.5938 24.9219 84.1406 24.9375L83.9688 23.7031L85.75 23.6875V16.9844H84.3125V15.7656H92.1562ZM95.0469 14.3281V19.8438H97.2969V21.0625H95.0469V28.3281H93.5625V14.3281H95.0469ZM87.1875 23.6562C87.875 23.6484 88.5781 23.625 89.2812 23.5938V16.9844H87.1875V23.6562ZM103.016 17.8906C103.016 20.4531 104.453 23 106.594 23.9688L105.688 25.1562C104.094 24.3594 102.898 22.7734 102.281 20.8594C101.664 22.875 100.438 24.5781 98.8281 25.4219L97.8906 24.2188C100.062 23.1875 101.516 20.4844 101.516 17.8906V15.5H103.016V17.8906ZM109.641 14.3281V28.3594H108.172V20.1875H105.047V18.9844H108.172V14.3281H109.641ZM124.062 15.75V16.9375H115.719V15.75H119.156V14.2656H120.641V15.75H124.062ZM119.891 17.5625C121.906 17.5781 123.281 18.5781 123.281 20.1094C123.281 21.6406 121.906 22.6562 119.891 22.6562C117.859 22.6562 116.484 21.6406 116.484 20.1094C116.484 18.5781 117.859 17.5781 119.891 17.5625ZM119.891 18.7031C118.703 18.7031 117.906 19.25 117.922 20.1094C117.906 20.9844 118.703 21.5 119.891 21.5C121.078 21.5 121.875 20.9844 121.891 20.1094C121.875 19.25 121.078 18.7031 119.891 18.7031ZM126.703 14.3281V18.125H128.734V19.3594H126.703V23.0781H125.219V14.3281H126.703ZM126.703 23.7969V28.3281H125.219V25H117.453V23.7969H126.703ZM140.906 15.6719V17.1719C140.891 18.9375 140.891 20.7812 140.391 23.4531L138.938 23.2969C139.422 20.7656 139.422 18.8906 139.422 17.1719V16.875H130.844V15.6719H140.906ZM142.297 25.2031V26.4375H129.531V25.2031H132.547V20.6719H134.031V25.2031H136.047V20.6719H137.5V25.2031H142.297ZM158.406 14.9062V19.6406H154.375V21.1719H160.031V22.375H147.266V21.1719H152.922V19.6406H148.891V14.9062H158.406ZM150.344 16.0781V18.4531H156.938V16.0781H150.344ZM154.391 23.5781C154.391 25.3281 156.359 26.7188 159.078 27.0781L158.516 28.25C156.32 27.9062 154.5 26.9375 153.641 25.5C152.781 26.9375 150.961 27.9062 148.766 28.25L148.219 27.0781C150.906 26.7188 152.891 25.3281 152.891 23.5781V23.1719H154.391V23.5781ZM172 14.3281V19.9062H174.172V21.1406H172V28.3125H170.516V14.3281H172ZM168.344 15.7969C168.328 19.8438 166.547 23.4531 161.938 25.7344L161.109 24.5781C164.617 22.8281 166.523 20.2969 166.828 17.0312H161.812V15.7969H168.344ZM181.125 15.3438C181.125 16.3828 180.953 17.3359 180.625 18.2031H182.609V14.625H184.016V22.1719H182.609V19.4062H180C179.109 20.7891 177.695 21.8906 175.766 22.7031L175.016 21.5938C177.789 20.4922 179.32 18.7734 179.594 16.5469H175.656V15.3438H181.125ZM186.859 14.3438V22.3906H185.453V14.3438H186.859ZM179.906 23.6875C179.891 24.8984 180.492 26.1641 181.766 26.9375C183.039 26.0938 183.656 24.7344 183.672 23.6875V22.8438H185.109V23.6875C185.109 25.1406 186.078 26.5781 187.891 27.1719L187.172 28.2656C185.781 27.7734 184.844 26.8359 184.359 25.6719C183.914 26.7969 183.086 27.8359 181.781 28.375C180.445 27.8672 179.609 26.8594 179.188 25.7031C178.68 26.8281 177.75 27.7656 176.438 28.2656L175.688 27.1719C177.484 26.5312 178.484 25.0469 178.484 23.6875V22.8438H179.906V23.6875ZM192.547 15.375C194.445 15.375 195.836 16.9844 196.062 19.5781H198.953V14.3281H200.422V28.3594H198.953V20.7812H196.078C195.914 23.5078 194.492 25.2031 192.547 25.2031C190.453 25.2031 188.984 23.2969 189 20.2812C188.984 17.2812 190.453 15.375 192.547 15.375ZM192.547 16.7031C191.281 16.7031 190.406 18.0781 190.406 20.2812C190.406 22.5 191.281 23.875 192.547 23.875C193.812 23.875 194.688 22.5 194.688 20.2812C194.688 18.0781 193.812 16.7031 192.547 16.7031Z" fill="#505050"/>
<path d="M95 87.5C95 75.6259 104.626 66 116.5 66H323V84C323 97.8071 311.807 109 298 109H116.5C104.626 109 95 99.3741 95 87.5Z" fill="#5772FF"/>
<path d="M127.516 80.3281V83.4062H129.547V84.6406H127.516V87.4375H126.031V80.3281H127.516ZM123.609 81.2344V86.9844H117.062V81.2344H123.609ZM118.516 82.4219V85.7969H122.156V82.4219H118.516ZM119.375 88.6562V92.7344C120.195 92.6953 121.141 92.5781 122.031 92.2812L122.25 93.4531C120.953 93.8906 119.688 93.9531 118.641 93.9531H117.922V88.6562H119.375ZM128.828 88.8125V89.9062H121.766V88.8125H124.594V87.6406H126.047V88.8125H128.828ZM125.297 90.3594C126.844 90.375 127.938 91.1094 127.938 92.3281C127.938 93.5469 126.844 94.2969 125.297 94.2969C123.719 94.2969 122.641 93.5469 122.656 92.3281C122.641 91.1094 123.719 90.375 125.297 90.3594ZM125.297 91.3906C124.516 91.4062 123.969 91.75 123.969 92.3281C123.969 92.9219 124.516 93.2812 125.297 93.2812C126.062 93.2812 126.609 92.9219 126.609 92.3281C126.609 91.75 126.062 91.4062 125.297 91.3906ZM141.938 80.3281V94.3594H140.453V80.3281H141.938ZM134.453 81.375C136.531 81.375 138.062 83.2812 138.062 86.2812C138.062 89.2969 136.531 91.2031 134.453 91.2031C132.344 91.2031 130.828 89.2969 130.828 86.2812C130.828 83.2812 132.344 81.375 134.453 81.375ZM134.453 82.7031C133.156 82.7031 132.266 84.0781 132.266 86.2812C132.266 88.5 133.156 89.875 134.453 89.875C135.734 89.875 136.625 88.5 136.625 86.2812C136.625 84.0781 135.734 82.7031 134.453 82.7031ZM151.828 81.375C153.922 81.375 155.406 83.2812 155.422 86.2812C155.406 89.2969 153.922 91.2031 151.828 91.2031C149.734 91.2031 148.234 89.2969 148.25 86.2812C148.234 83.2812 149.734 81.375 151.828 81.375ZM151.828 82.7031C150.547 82.7031 149.672 84.0781 149.672 86.2812C149.672 88.5 150.547 89.875 151.828 89.875C153.125 89.875 154 88.5 154 86.2812C154 84.0781 153.125 82.7031 151.828 82.7031ZM158.984 80.3281V85.8125H161.234V87.0625H158.984V94.3281H157.5V80.3281H158.984ZM174.719 91.3281V92.5781H161.906V91.3281H174.719ZM173.547 81.6719V82.8906H171.406V87.5625H173.5V88.75H163.031V87.5625H165.125V82.8906H163V81.6719H173.547ZM166.594 87.5625H169.953V82.8906H166.594V87.5625ZM181.938 81.3438C181.938 82.3828 181.766 83.3359 181.438 84.2031H183.422V80.625H184.828V88.1719H183.422V85.4062H180.812C179.922 86.7891 178.508 87.8906 176.578 88.7031L175.828 87.5938C178.602 86.4922 180.133 84.7734 180.406 82.5469H176.469V81.3438H181.938ZM187.672 80.3438V88.3906H186.266V80.3438H187.672ZM180.719 89.6875C180.703 90.8984 181.305 92.1641 182.578 92.9375C183.852 92.0938 184.469 90.7344 184.484 89.6875V88.8438H185.922V89.6875C185.922 91.1406 186.891 92.5781 188.703 93.1719L187.984 94.2656C186.594 93.7734 185.656 92.8359 185.172 91.6719C184.727 92.7969 183.898 93.8359 182.594 94.375C181.258 93.8672 180.422 92.8594 180 91.7031C179.492 92.8281 178.562 93.7656 177.25 94.2656L176.5 93.1719C178.297 92.5312 179.297 91.0469 179.297 89.6875V88.8438H180.719V89.6875ZM200.469 80.3281V85.75H202.719V86.9688H200.469V94.3594H198.984V80.3281H200.469ZM196.703 81.6719V82.875H191.641V89.6406C193.992 89.6328 195.758 89.5312 197.75 89.1719L197.938 90.4219C195.75 90.8125 193.891 90.8906 191.281 90.875H190.156V81.6719H196.703ZM204.984 93.1094C204.375 93.1094 203.859 92.6094 203.875 92C203.859 91.3906 204.375 90.8906 204.984 90.8906C205.578 90.8906 206.094 91.3906 206.094 92C206.094 92.6094 205.578 93.1094 204.984 93.1094ZM217.703 81.1719C220.703 81.1875 222.875 82.6562 222.875 84.8906C222.875 86.9922 221.055 88.375 218.438 88.5938V91.3438H224.141V92.5781H211.328V91.3438H216.969V88.5938C214.367 88.375 212.547 86.9922 212.547 84.8906C212.547 82.6562 214.719 81.1875 217.703 81.1719ZM217.703 82.3906C215.547 82.375 213.984 83.375 213.984 84.8906C213.984 86.4688 215.547 87.4375 217.703 87.4531C219.875 87.4375 221.438 86.4688 221.438 84.8906C221.438 83.375 219.875 82.375 217.703 82.3906ZM236.453 83.5156V84.7188H226.844V80.5312H228.297V83.5156H236.453ZM237.953 85.9531V87.1406H225.141V85.9531H237.953ZM236.344 88.2656V91.6875H228.219V92.9844H236.828V94.1562H226.734V90.5938H234.875V89.4219H226.703V88.2656H236.344ZM251.75 87.6406V88.8281H238.984V87.6406H251.75ZM250.312 92.8281V94.0312H240.594V89.9688H242.094V92.8281H250.312ZM245.359 80.7969C248.391 80.7812 250.359 81.8438 250.359 83.5938C250.359 85.3594 248.391 86.4219 245.359 86.4375C242.312 86.4219 240.359 85.3594 240.359 83.5938C240.359 81.8438 242.312 80.7812 245.359 80.7969ZM245.359 81.9844C243.219 81.9844 241.875 82.5938 241.891 83.5938C241.875 84.625 243.219 85.2188 245.359 85.2188C247.5 85.2188 248.828 84.625 248.828 83.5938C248.828 82.5938 247.5 81.9844 245.359 81.9844ZM268.281 80.8125V82.0312H266.25V84.8438H268.219V86.0156H257.953V84.8438H259.938V82.0312H257.891V80.8125H268.281ZM269.484 87.2812V88.4844H263.828V90.0312H267.922V94.3281H266.422V91.2344H258.141V90.0312H262.359V88.4844H256.719V87.2812H269.484ZM261.406 84.8438H264.766V82.0312H261.406V84.8438ZM279.828 81.7344C279.812 83.3125 281.094 84.6562 283.281 85.1562L282.594 86.3281C280.93 85.8984 279.703 85.0078 279.078 83.7812C278.445 85.1406 277.188 86.1719 275.484 86.6406L274.75 85.4844C276.969 84.9062 278.297 83.4219 278.297 81.7344V80.9219H279.828V81.7344ZM286.094 80.3438V94.3281H284.625V80.3438H286.094ZM274.438 87.7656C277.047 87.7812 280.594 87.7344 283.656 87.3125L283.766 88.375C282.484 88.6172 281.164 88.7656 279.875 88.8438V93.8906H278.391V88.9375C277.039 88.9922 275.758 89 274.641 89L274.438 87.7656ZM292.078 81.375C293.977 81.375 295.367 82.9844 295.594 85.5781H298.484V80.3281H299.953V94.3594H298.484V86.7812H295.609C295.445 89.5078 294.023 91.2031 292.078 91.2031C289.984 91.2031 288.516 89.2969 288.531 86.2812C288.516 83.2812 289.984 81.375 292.078 81.375ZM292.078 82.7031C290.812 82.7031 289.938 84.0781 289.938 86.2812C289.938 88.5 290.812 89.875 292.078 89.875C293.344 89.875 294.219 88.5 294.219 86.2812C294.219 84.0781 293.344 82.7031 292.078 82.7031Z" fill="white"/>
<path d="M0 157C0 143.193 11.1929 132 25 132H165.5C177.374 132 187 141.626 187 153.5C187 165.374 177.374 175 165.5 175H0V157Z" fill="white"/>
<path d="M30.8125 147.828V148.688C30.8125 149.859 30.8125 151.672 30.4062 154.172L28.9375 154.062C29.2891 151.82 29.3281 150.203 29.3438 149.031H23.6562V147.828H30.8125ZM27.2188 151.828V156.016C28.7109 155.969 30.2266 155.867 31.625 155.688L31.7031 156.797C28.7812 157.266 25.5312 157.328 23.0469 157.312L22.875 156.109C23.75 156.102 24.7266 156.094 25.75 156.062V151.828H27.2188ZM33.9219 146.328V152.109H36.0625V153.375H33.9219V160.328H32.4219V146.328H33.9219ZM48.8594 146.328V160.328H47.4375V146.328H48.8594ZM46.0156 146.625V159.625H44.6094V152.5H42.4375V151.281H44.6094V146.625H46.0156ZM41.0625 150.234C41.0625 152.625 42.0312 155.016 44 156.156L43.1094 157.25C41.7734 156.453 40.8516 155.039 40.375 153.344C39.8672 155.172 38.9141 156.727 37.5469 157.578L36.6406 156.469C38.625 155.266 39.6406 152.719 39.6406 150.234V149.109H37.0625V147.906H43.4688V149.109H41.0625V150.234ZM59.4375 155.578C59.4375 156.781 60.0312 158.055 61.2969 158.812C62.5859 157.992 63.2188 156.648 63.2188 155.578V154.906H64.6719V155.578C64.6719 157.031 65.625 158.438 67.4531 159.031L66.7188 160.125C65.3359 159.648 64.3984 158.719 63.9062 157.562C63.4609 158.695 62.625 159.719 61.3438 160.25C60 159.742 59.1484 158.75 58.7188 157.609C58.2109 158.711 57.2891 159.641 55.9688 160.125L55.2188 159.031C57.0156 158.391 57.9844 156.938 58 155.578V154.906H59.4375V155.578ZM66.1875 146.344V154.312H64.7031V146.344H66.1875ZM58.5938 147.109C60.7344 147.109 62.3125 148.469 62.3125 150.422C62.3125 152.359 60.7344 153.703 58.5938 153.703C56.4531 153.703 54.8594 152.359 54.8594 150.422C54.8594 148.469 56.4531 147.109 58.5938 147.109ZM58.5938 148.375C57.2656 148.359 56.3125 149.188 56.3125 150.422C56.3125 151.641 57.2656 152.469 58.5938 152.469C59.9062 152.469 60.8594 151.641 60.8594 150.422C60.8594 149.188 59.9062 148.359 58.5938 148.375ZM74.7812 147.172C77.7188 147.172 79.9531 148.719 79.9531 151.078C79.9531 153.438 77.7188 155 74.7812 154.984C71.8438 155 69.625 153.438 69.625 151.078C69.625 148.719 71.8438 147.172 74.7812 147.172ZM74.7812 148.375C72.6406 148.359 71.0312 149.453 71.0469 151.078C71.0312 152.719 72.6406 153.766 74.7812 153.766C76.9219 153.766 78.5156 152.719 78.5156 151.078C78.5156 149.453 76.9219 148.359 74.7812 148.375ZM81.2188 157.281V158.516H68.4062V157.281H81.2188ZM89.375 147.516V148.703H92.4219V146.344H93.9062V156.547H92.4219V152.922H89.375V154.141H82.875V147.516H89.375ZM84.3438 148.719V152.969H87.9219V148.719H84.3438ZM94.2188 158.828V160.031H84.7656V155.609H86.2656V158.828H94.2188ZM89.375 151.703H92.4219V149.922H89.375V151.703ZM110.969 146.328V149.25H113V150.484H110.969V153.406H109.484V146.328H110.969ZM110.969 154.047V157.594H103.406V158.969H111.453V160.156H101.953V156.484H109.5V155.203H101.922V154.047H110.969ZM103.859 146.812C105.984 146.812 107.531 148.094 107.531 149.938C107.531 151.781 105.984 153.062 103.859 153.062C101.734 153.062 100.172 151.781 100.188 149.938C100.172 148.094 101.734 146.812 103.859 146.812ZM103.859 148.031C102.562 148.031 101.625 148.797 101.625 149.938C101.625 151.078 102.562 151.875 103.859 151.875C105.141 151.875 106.094 151.078 106.094 149.938C106.094 148.797 105.141 148.031 103.859 148.031ZM125.453 146.328V160.359H123.984V154.5H121.25V153.266H123.984V150.672H121.328V149.453H123.984V146.328H125.453ZM120.484 147.562V152.672H115.797V155.891C117.781 155.883 119.438 155.789 121.438 155.5L121.562 156.719C119.375 157.062 117.594 157.125 115.375 157.125H114.312V151.5H119.031V148.766H114.281V147.562H120.484ZM140.391 154.219V155.422H134.703V160.312H133.25V155.422H127.625V154.219H140.391ZM139.188 147.156V148.344H134.859C134.883 150.078 137.039 151.625 139.688 151.984L139.141 153.156C136.844 152.797 134.859 151.664 134.016 150.062C133.148 151.664 131.172 152.797 128.906 153.156L128.344 151.984C130.961 151.625 133.117 150.078 133.172 148.344H128.812V147.156H139.188ZM152.359 146.328V151.797H154.609V153.047H152.359V160.359H150.891V146.328H152.359ZM148.406 147.594V152.734H143.5V155.766C145.906 155.758 147.688 155.672 149.734 155.297L149.875 156.5C147.688 156.906 145.797 157 143.172 157.016H142.031V151.531H146.938V148.797H142V147.594H148.406ZM157.859 147.688L157.719 155.734H156.172L156.031 147.688H157.859ZM156.953 159.109C156.344 159.109 155.828 158.609 155.844 158C155.828 157.391 156.344 156.891 156.953 156.891C157.547 156.891 158.062 157.391 158.062 158C158.062 158.609 157.547 159.109 156.953 159.109ZM162.234 147.688L162.094 155.734H160.547L160.406 147.688H162.234ZM161.328 159.109C160.719 159.109 160.203 158.609 160.219 158C160.203 157.391 160.719 156.891 161.328 156.891C161.922 156.891 162.438 157.391 162.438 158C162.438 158.609 161.922 159.109 161.328 159.109Z" fill="#505050"/>
<path d="M209 219.5C209 207.626 218.626 198 230.5 198H323V216C323 229.807 311.807 241 298 241H230.5C218.626 241 209 231.374 209 219.5Z" fill="#5772FF"/>
<path d="M247.281 219.047V220.234H234.516V219.047H247.281ZM240.891 221.297C243.906 221.281 245.719 222.188 245.719 223.812C245.719 225.438 243.906 226.328 240.891 226.328C237.844 226.328 236.031 225.438 236.031 223.812C236.031 222.188 237.844 221.281 240.891 221.297ZM240.891 222.422C238.75 222.422 237.531 222.906 237.531 223.812C237.531 224.688 238.75 225.172 240.891 225.172C243 225.172 244.234 224.688 244.234 223.812C244.234 222.906 243 222.422 240.891 222.422ZM240.891 212.656C243.953 212.672 245.891 213.688 245.891 215.359C245.891 217.031 243.953 218.031 240.891 218.031C237.828 218.031 235.891 217.031 235.891 215.359C235.891 213.688 237.828 212.672 240.891 212.656ZM240.891 213.844C238.734 213.844 237.406 214.391 237.422 215.359C237.406 216.328 238.734 216.875 240.891 216.875C243.031 216.875 244.359 216.328 244.359 215.359C244.359 214.391 243.031 213.844 240.891 213.844ZM263.25 212.328V215.25H265.281V216.484H263.25V219.406H261.766V212.328H263.25ZM263.25 220.047V223.594H255.688V224.969H263.734V226.156H254.234V222.484H261.781V221.203H254.203V220.047H263.25ZM256.141 212.812C258.266 212.812 259.812 214.094 259.812 215.938C259.812 217.781 258.266 219.062 256.141 219.062C254.016 219.062 252.453 217.781 252.469 215.938C252.453 214.094 254.016 212.812 256.141 212.812ZM256.141 214.031C254.844 214.031 253.906 214.797 253.906 215.938C253.906 217.078 254.844 217.875 256.141 217.875C257.422 217.875 258.375 217.078 258.375 215.938C258.375 214.797 257.422 214.031 256.141 214.031ZM272.281 213.344C272.281 214.383 272.109 215.336 271.781 216.203H273.766V212.625H275.172V220.172H273.766V217.406H271.156C270.266 218.789 268.852 219.891 266.922 220.703L266.172 219.594C268.945 218.492 270.477 216.773 270.75 214.547H266.812V213.344H272.281ZM278.016 212.344V220.391H276.609V212.344H278.016ZM271.062 221.688C271.047 222.898 271.648 224.164 272.922 224.938C274.195 224.094 274.812 222.734 274.828 221.688V220.844H276.266V221.688C276.266 223.141 277.234 224.578 279.047 225.172L278.328 226.266C276.938 225.773 276 224.836 275.516 223.672C275.07 224.797 274.242 225.836 272.938 226.375C271.602 225.867 270.766 224.859 270.344 223.703C269.836 224.828 268.906 225.766 267.594 226.266L266.844 225.172C268.641 224.531 269.641 223.047 269.641 221.688V220.844H271.062V221.688ZM283.703 213.375C285.602 213.375 286.992 214.984 287.219 217.578H290.109V212.328H291.578V226.359H290.109V218.781H287.234C287.07 221.508 285.648 223.203 283.703 223.203C281.609 223.203 280.141 221.297 280.156 218.281C280.141 215.281 281.609 213.375 283.703 213.375ZM283.703 214.703C282.438 214.703 281.562 216.078 281.562 218.281C281.562 220.5 282.438 221.875 283.703 221.875C284.969 221.875 285.844 220.5 285.844 218.281C285.844 216.078 284.969 214.703 283.703 214.703ZM296.312 213.688L296.172 221.734H294.625L294.484 213.688H296.312ZM295.406 225.109C294.797 225.109 294.281 224.609 294.297 224C294.281 223.391 294.797 222.891 295.406 222.891C296 222.891 296.516 223.391 296.516 224C296.516 224.609 296 225.109 295.406 225.109Z" fill="white"/>
</svg>
