<svg width="116" height="154" viewBox="0 0 116 154" fill="none" xmlns="http://www.w3.org/2000/svg">
<g filter="url(#filter0_i_2947_542)">
<rect width="116" height="154" rx="13" fill="#5772FF"/>
<path d="M53.5169 86.1733V85.6193C53.5311 83.0483 53.7726 81.0028 54.2413 79.483C54.7243 77.9631 55.4061 76.7415 56.2868 75.8182C57.1674 74.8807 58.2399 74.0213 59.5041 73.2401C60.3706 72.7003 61.1447 72.1108 61.8265 71.4716C62.5225 70.8182 63.0694 70.0937 63.4672 69.2983C63.8649 68.4886 64.0637 67.5866 64.0637 66.5923C64.0637 65.4702 63.801 64.4972 63.2754 63.6733C62.7498 62.8494 62.0396 62.2102 61.1447 61.7557C60.264 61.3011 59.2768 61.0739 58.1831 61.0739C57.1745 61.0739 56.2157 61.294 55.3066 61.7344C54.4118 62.1605 53.666 62.8139 53.0694 63.6946C52.487 64.5611 52.1603 65.6619 52.0893 66.9972H44.5041C44.5751 64.2983 45.2285 62.0398 46.4643 60.2216C47.7143 58.4034 49.362 57.0398 51.4075 56.1307C53.4672 55.2216 55.7399 54.767 58.2257 54.767C60.9387 54.767 63.3251 55.2429 65.3848 56.1946C67.4586 57.1463 69.0708 58.5028 70.2214 60.2642C71.3862 62.0114 71.9686 64.0852 71.9686 66.4858C71.9686 68.1051 71.7058 69.554 71.1802 70.8324C70.6689 72.1108 69.9373 73.2472 68.9856 74.2415C68.0339 75.2358 66.9047 76.1236 65.5978 76.9048C64.4473 77.6151 63.5027 78.3537 62.764 79.1207C62.0396 79.8878 61.4998 80.7898 61.1447 81.8267C60.8038 82.8494 60.6262 84.1136 60.612 85.6193V86.1733H53.5169ZM57.2243 99.4688C55.9458 99.4688 54.845 99.0142 53.9217 98.1051C52.9984 97.196 52.5368 96.0881 52.5368 94.7812C52.5368 93.5028 52.9984 92.4091 53.9217 91.5C54.845 90.5909 55.9458 90.1364 57.2243 90.1364C58.4885 90.1364 59.5822 90.5909 60.5055 91.5C61.443 92.4091 61.9118 93.5028 61.9118 94.7812C61.9118 95.6477 61.6916 96.4361 61.2512 97.1463C60.8251 97.8565 60.2569 98.4247 59.5467 98.8509C58.8507 99.2628 58.0765 99.4688 57.2243 99.4688Z" fill="white"/>
</g>
<defs>
<filter id="filter0_i_2947_542" x="0" y="0" width="116" height="154" filterUnits="userSpaceOnUse" color-interpolation-filters="sRGB">
<feFlood flood-opacity="0" result="BackgroundImageFix"/>
<feBlend mode="normal" in="SourceGraphic" in2="BackgroundImageFix" result="shape"/>
<feColorMatrix in="SourceAlpha" type="matrix" values="0 0 0 0 0 0 0 0 0 0 0 0 0 0 0 0 0 0 127 0" result="hardAlpha"/>
<feMorphology radius="4" operator="erode" in="SourceAlpha" result="effect1_innerShadow_2947_542"/>
<feOffset/>
<feComposite in2="hardAlpha" operator="arithmetic" k2="-1" k3="1"/>
<feColorMatrix type="matrix" values="0 0 0 0 0.341176 0 0 0 0 0.447059 0 0 0 0 1 0 0 0 1 0"/>
<feBlend mode="normal" in2="shape" result="effect1_innerShadow_2947_542"/>
</filter>
</defs>
</svg>
