<svg width="152" height="108" viewBox="0 0 152 108" fill="none" xmlns="http://www.w3.org/2000/svg">
<path d="M2.08523 101V77.7273H11.4034C13.1155 77.7273 14.5436 77.9811 15.6875 78.4886C16.8314 78.9962 17.6913 79.7008 18.267 80.6023C18.8428 81.4962 19.1307 82.5265 19.1307 83.6932C19.1307 84.6023 18.9489 85.4015 18.5852 86.0909C18.2216 86.7727 17.7216 87.3333 17.0852 87.7727C16.4564 88.2045 15.7367 88.5114 14.9261 88.6932V88.9205C15.8125 88.9583 16.642 89.2083 17.4148 89.6705C18.1951 90.1326 18.8277 90.7803 19.3125 91.6136C19.7973 92.4394 20.0398 93.4242 20.0398 94.5682C20.0398 95.803 19.733 96.9053 19.1193 97.875C18.5133 98.8371 17.6155 99.5985 16.4261 100.159C15.2367 100.72 13.7708 101 12.0284 101H2.08523ZM7.00568 96.9773H11.017C12.3883 96.9773 13.3883 96.7159 14.017 96.1932C14.6458 95.6629 14.9602 94.9583 14.9602 94.0795C14.9602 93.4356 14.8049 92.8674 14.4943 92.375C14.1837 91.8826 13.7405 91.4962 13.1648 91.2159C12.5966 90.9356 11.9186 90.7955 11.1307 90.7955H7.00568V96.9773ZM7.00568 87.4659H10.6534C11.3277 87.4659 11.9261 87.3485 12.4489 87.1136C12.9792 86.8712 13.3958 86.5303 13.6989 86.0909C14.0095 85.6515 14.1648 85.125 14.1648 84.5114C14.1648 83.6705 13.8655 82.9924 13.267 82.4773C12.6761 81.9621 11.8352 81.7045 10.7443 81.7045H7.00568V87.4659ZM31.0369 101.341C29.2718 101.341 27.7453 100.966 26.4574 100.216C25.1771 99.4583 24.1884 98.4053 23.4915 97.0568C22.7945 95.7008 22.446 94.1288 22.446 92.3409C22.446 90.5379 22.7945 88.9621 23.4915 87.6136C24.1884 86.2576 25.1771 85.2045 26.4574 84.4545C27.7453 83.697 29.2718 83.3182 31.0369 83.3182C32.8021 83.3182 34.3248 83.697 35.6051 84.4545C36.893 85.2045 37.8854 86.2576 38.5824 87.6136C39.2794 88.9621 39.6278 90.5379 39.6278 92.3409C39.6278 94.1288 39.2794 95.7008 38.5824 97.0568C37.8854 98.4053 36.893 99.4583 35.6051 100.216C34.3248 100.966 32.8021 101.341 31.0369 101.341ZM31.0597 97.5909C31.8627 97.5909 32.5331 97.3636 33.071 96.9091C33.6089 96.447 34.0142 95.8182 34.2869 95.0227C34.5672 94.2273 34.7074 93.322 34.7074 92.3068C34.7074 91.2917 34.5672 90.3864 34.2869 89.5909C34.0142 88.7955 33.6089 88.1667 33.071 87.7045C32.5331 87.2424 31.8627 87.0114 31.0597 87.0114C30.2491 87.0114 29.5672 87.2424 29.0142 87.7045C28.4688 88.1667 28.0559 88.7955 27.7756 89.5909C27.5028 90.3864 27.3665 91.2917 27.3665 92.3068C27.3665 93.322 27.5028 94.2273 27.7756 95.0227C28.0559 95.8182 28.4688 96.447 29.0142 96.9091C29.5672 97.3636 30.2491 97.5909 31.0597 97.5909ZM53.9688 93.5682V83.5455H58.8097V101H54.1619V97.8295H53.9801C53.5862 98.8523 52.9309 99.6742 52.0142 100.295C51.1051 100.917 49.9953 101.227 48.6847 101.227C47.518 101.227 46.4915 100.962 45.6051 100.432C44.7188 99.9015 44.0256 99.1477 43.5256 98.1705C43.0331 97.1932 42.7831 96.0227 42.7756 94.6591V83.5455H47.6165V93.7955C47.6241 94.8258 47.9006 95.6402 48.446 96.2386C48.9915 96.8371 49.7225 97.1364 50.6392 97.1364C51.2225 97.1364 51.768 97.0038 52.2756 96.7386C52.7831 96.4659 53.1922 96.0644 53.5028 95.5341C53.821 95.0038 53.9763 94.3485 53.9688 93.5682ZM67.5227 90.9091V101H62.6818V83.5455H67.2955V86.625H67.5C67.8864 85.6098 68.5341 84.8068 69.4432 84.2159C70.3523 83.6174 71.4545 83.3182 72.75 83.3182C73.9621 83.3182 75.0189 83.5833 75.9205 84.1136C76.822 84.6439 77.5227 85.4015 78.0227 86.3864C78.5227 87.3636 78.7727 88.5303 78.7727 89.8864V101H73.9318V90.75C73.9394 89.6818 73.6667 88.8485 73.1136 88.25C72.5606 87.6439 71.7992 87.3409 70.8295 87.3409C70.178 87.3409 69.6023 87.4811 69.1023 87.7614C68.6098 88.0417 68.2235 88.4508 67.9432 88.9886C67.6705 89.5189 67.5303 90.1591 67.5227 90.9091ZM89.0199 101.284C87.6941 101.284 86.4934 100.943 85.4176 100.261C84.3494 99.572 83.5009 98.5606 82.8722 97.2273C82.2509 95.8864 81.9403 94.2424 81.9403 92.2955C81.9403 90.2955 82.2623 88.6326 82.9062 87.3068C83.5502 85.9735 84.4063 84.9773 85.4744 84.3182C86.5502 83.6515 87.7282 83.3182 89.0085 83.3182C89.9858 83.3182 90.8002 83.4848 91.4517 83.8182C92.1108 84.1439 92.6411 84.553 93.0426 85.0455C93.4517 85.5303 93.7623 86.0076 93.9744 86.4773H94.1222V77.7273H98.9517V101H94.179V98.2045H93.9744C93.7472 98.6894 93.4252 99.1705 93.0085 99.6477C92.5994 100.117 92.0653 100.508 91.4062 100.818C90.7547 101.129 89.9593 101.284 89.0199 101.284ZM90.554 97.4318C91.3343 97.4318 91.9934 97.2197 92.5312 96.7955C93.0767 96.3636 93.4934 95.7614 93.7812 94.9886C94.0767 94.2159 94.2244 93.3106 94.2244 92.2727C94.2244 91.2348 94.0805 90.3333 93.7926 89.5682C93.5047 88.803 93.0881 88.2121 92.5426 87.7955C91.9972 87.3788 91.3343 87.1705 90.554 87.1705C89.7585 87.1705 89.0881 87.3864 88.5426 87.8182C87.9972 88.25 87.5843 88.8485 87.304 89.6136C87.0237 90.3788 86.8835 91.2652 86.8835 92.2727C86.8835 93.2879 87.0237 94.1856 87.304 94.9659C87.5919 95.7386 88.0047 96.3447 88.5426 96.7841C89.0881 97.2159 89.7585 97.4318 90.554 97.4318ZM107.909 101.33C106.795 101.33 105.803 101.136 104.932 100.75C104.061 100.356 103.371 99.7765 102.864 99.0114C102.364 98.2386 102.114 97.2765 102.114 96.125C102.114 95.1553 102.292 94.3409 102.648 93.6818C103.004 93.0227 103.489 92.4924 104.102 92.0909C104.716 91.6894 105.413 91.3864 106.193 91.1818C106.981 90.9773 107.807 90.8333 108.67 90.75C109.686 90.6439 110.504 90.5455 111.125 90.4545C111.746 90.3561 112.197 90.2121 112.477 90.0227C112.758 89.8333 112.898 89.553 112.898 89.1818V89.1136C112.898 88.3939 112.67 87.8371 112.216 87.4432C111.769 87.0492 111.133 86.8523 110.307 86.8523C109.436 86.8523 108.742 87.0455 108.227 87.4318C107.712 87.8106 107.371 88.2879 107.205 88.8636L102.727 88.5C102.955 87.4394 103.402 86.5227 104.068 85.75C104.735 84.9697 105.595 84.3712 106.648 83.9545C107.708 83.5303 108.936 83.3182 110.33 83.3182C111.299 83.3182 112.227 83.4318 113.114 83.6591C114.008 83.8864 114.799 84.2386 115.489 84.7159C116.186 85.1932 116.735 85.8068 117.136 86.5568C117.538 87.2992 117.739 88.1894 117.739 89.2273V101H113.148V98.5795H113.011C112.731 99.125 112.356 99.6061 111.886 100.023C111.417 100.432 110.852 100.754 110.193 100.989C109.534 101.216 108.773 101.33 107.909 101.33ZM109.295 97.9886C110.008 97.9886 110.636 97.8485 111.182 97.5682C111.727 97.2803 112.155 96.8939 112.466 96.4091C112.777 95.9242 112.932 95.375 112.932 94.7614V92.9091C112.78 93.0076 112.572 93.0985 112.307 93.1818C112.049 93.2576 111.758 93.3295 111.432 93.3977C111.106 93.4583 110.78 93.5152 110.455 93.5682C110.129 93.6136 109.833 93.6553 109.568 93.6932C109 93.7765 108.504 93.9091 108.08 94.0909C107.655 94.2727 107.326 94.5189 107.091 94.8295C106.856 95.1326 106.739 95.5114 106.739 95.9659C106.739 96.625 106.977 97.1288 107.455 97.4773C107.939 97.8182 108.553 97.9886 109.295 97.9886ZM121.494 101V83.5455H126.188V86.5909H126.369C126.688 85.5076 127.222 84.6894 127.972 84.1364C128.722 83.5758 129.585 83.2955 130.562 83.2955C130.805 83.2955 131.066 83.3106 131.347 83.3409C131.627 83.3712 131.873 83.4129 132.085 83.4659V87.7614C131.858 87.6932 131.544 87.6326 131.142 87.5795C130.741 87.5265 130.373 87.5 130.04 87.5C129.328 87.5 128.691 87.6553 128.131 87.9659C127.578 88.2689 127.138 88.6932 126.812 89.2386C126.494 89.7841 126.335 90.4129 126.335 91.125V101H121.494ZM138.108 107.545C137.494 107.545 136.919 107.496 136.381 107.398C135.85 107.307 135.411 107.189 135.062 107.045L136.153 103.432C136.722 103.606 137.233 103.701 137.688 103.716C138.15 103.731 138.547 103.625 138.881 103.398C139.222 103.17 139.498 102.784 139.71 102.239L139.994 101.5L133.733 83.5455H138.824L142.438 96.3636H142.619L146.267 83.5455H151.392L144.608 102.886C144.282 103.826 143.839 104.644 143.278 105.341C142.725 106.045 142.025 106.587 141.176 106.966C140.328 107.352 139.305 107.545 138.108 107.545Z" fill="#5772FF"/>
<path d="M105.532 49.5C105.532 77.1142 86.7163 56.5 59.1021 56.5C31.4879 56.5 56.1022 50.6142 56.1022 23C56.1022 -4.61425 77.6023 16 81.6023 0C109.217 0 105.532 88 105.532 49.5Z" fill="#5772FF"/>
</svg>
